<svg width="238" height="143" viewBox="0 0 238 143" fill="none" xmlns="http://www.w3.org/2000/svg">
<path d="M135.547 0.636719C126.746 0.636719 119.436 6.68553 118.165 14.5492L112.82 19.5216C103.518 28.176 89.8176 33.3428 76.1719 33.3428H41.0156C33.377 33.3428 26.8641 37.9003 24.4453 44.2449H23.4375C10.5141 44.2449 0 54.0262 0 66.049C0 78.0718 10.5141 87.8531 23.4375 87.8531H24.4453C26.2137 92.4915 30.1703 96.1724 35.1562 97.8175V126.01C35.1562 135.027 43.0422 142.363 52.7348 142.363C62.427 142.363 70.3125 135.027 70.3125 126.01V98.7551H76.1719C89.8172 98.7551 103.517 103.922 112.82 112.576L118.165 117.549C119.436 125.412 126.746 131.461 135.547 131.461C145.239 131.461 153.125 124.125 153.125 115.108V16.9898C153.125 7.9727 145.239 0.636719 135.547 0.636719ZM23.4375 76.951C16.9758 76.951 11.7188 72.0604 11.7188 66.049C11.7188 60.0376 16.9758 55.1469 23.4375 55.1469V76.951ZM58.5938 126.01C58.5938 129.016 55.9652 131.461 52.7344 131.461C49.5035 131.461 46.875 129.016 46.875 126.01V98.7551H58.5938V126.01ZM70.3125 87.8531H41.0156C37.7848 87.8531 35.1562 85.4077 35.1562 82.402V49.6959C35.1562 46.6902 37.7848 44.2449 41.0156 44.2449H70.3125V87.8531ZM117.969 102.151C108.07 94.1813 95.343 89.2293 81.9922 88.1002L81.9926 43.9974C95.343 42.8687 108.07 37.9166 117.969 29.9461V102.151ZM141.406 115.108C141.406 118.114 138.778 120.559 135.547 120.559H135.547C132.316 120.559 129.688 118.114 129.688 115.108V16.9898C129.688 13.9841 132.316 11.5388 135.547 11.5388C138.778 11.5388 141.406 13.9841 141.406 16.9898V115.108Z" fill="white"/>
<path d="M172.5 85.4699C192 70.5319 193.5 54.4468 172.5 40.6577" stroke="white" stroke-width="6"/>
<path d="M188 96.383C223.705 74.5532 214.761 51.6197 192.328 31.4681" stroke="white" stroke-width="6"/>
<path d="M211 105C246.705 77.7611 237.761 49.145 215.328 24" stroke="white" stroke-width="6"/>
</svg>
