<svg width="29" height="30" viewBox="0 0 29 30" fill="none" xmlns="http://www.w3.org/2000/svg">
<g clip-path="url(#clip0)">
<path d="M28.2033 25.1992L21.5502 18.3162C20.5589 19.9111 19.247 21.2675 17.7053 22.2931L24.3589 29.1761C25.4211 30.2747 27.1433 30.2747 28.2032 29.1761C29.2654 28.0793 29.2654 26.2977 28.2033 25.1992Z" fill="#0B575B"/>
<path d="M21.7509 11.25C21.7509 5.03735 16.8817 0 10.876 0C4.87042 0 0.000976562 5.03735 0.000976562 11.25C0.000976562 17.4627 4.87042 22.4998 10.876 22.4998C16.8817 22.4998 21.7509 17.4627 21.7509 11.25ZM10.876 19.6872C6.37836 19.6872 2.7198 15.9028 2.7198 11.2501C2.7198 6.59735 6.37836 2.81264 10.876 2.81264C15.3735 2.81264 19.0323 6.59735 19.0323 11.2501C19.0323 15.9028 15.3735 19.6872 10.876 19.6872Z" fill="#0B575B"/>
<path d="M4.53137 11.25H6.34364C6.34364 8.66542 8.37658 6.56257 10.875 6.56257V4.68762C7.37756 4.68762 4.53137 7.63196 4.53137 11.25Z" fill="#0B575B"/>
</g>
<defs>
<clipPath id="clip0">
<rect width="29" height="30" fill="white"/>
</clipPath>
</defs>
</svg>
