<?xml version="1.0" standalone="no"?>
<!DOCTYPE svg PUBLIC "-//W3C//DTD SVG 20010904//EN"
 "http://www.w3.org/TR/2001/REC-SVG-20010904/DTD/svg10.dtd">
<svg version="1.0" xmlns="http://www.w3.org/2000/svg"
 width="512.000000pt" height="512.000000pt" viewBox="0 0 512.000000 512.000000"
 preserveAspectRatio="xMidYMid meet">
<metadata>
Created by potrace 1.11, written by Peter Selinger 2001-2013
</metadata>
<g transform="translate(0.000000,512.000000) scale(0.100000,-0.100000)"
fill="#000000" stroke="none">
<path d="M0 2560 l0 -2560 2560 0 2560 0 0 2560 0 2560 -2560 0 -2560 0 0
-2560z m2995 1236 c71 -32 120 -78 152 -144 l28 -57 0 -940 c0 -757 -3 -947
-13 -978 -20 -56 -103 -140 -164 -168 -80 -36 -202 -34 -280 4 -70 34 -132
102 -156 170 -13 38 -34 66 -91 119 -180 168 -404 256 -666 261 l-110 2 -5
-285 c-6 -327 -6 -329 -100 -413 -80 -72 -187 -99 -288 -73 -75 19 -128 51
-176 107 -60 71 -66 107 -66 411 l0 268 -40 20 c-55 28 -108 77 -130 119 -18
35 -21 37 -95 48 -149 21 -269 107 -329 233 -28 58 -31 75 -31 155 0 82 3 97
32 156 61 124 195 216 329 227 l65 5 35 52 c36 55 81 91 149 122 36 16 86 19
475 24 476 6 487 7 657 75 158 63 352 214 384 298 34 91 75 138 157 180 79 41
190 41 277 2z m1407 -433 c328 -413 383 -768 171 -1112 -50 -81 -289 -331
-317 -331 -15 0 -66 59 -66 76 1 5 21 25 46 44 123 95 254 260 307 385 73 175
59 393 -39 588 -36 71 -128 211 -178 272 -76 92 -73 82 -36 120 19 19 37 35
42 35 4 0 36 -35 70 -77z m-400 -131 c102 -106 172 -202 219 -297 116 -236 79
-449 -116 -653 -78 -82 -243 -212 -269 -212 -15 0 -60 80 -49 89 4 4 46 34 92
67 46 32 114 92 152 132 164 176 190 349 83 553 -39 73 -174 242 -230 287 -19
15 -34 31 -34 37 0 10 60 75 71 75 3 0 40 -35 81 -78z m-392 -117 c26 -19 76
-65 110 -102 187 -199 171 -428 -43 -644 -37 -38 -79 -77 -94 -86 -26 -17 -26
-17 -54 17 -16 19 -29 37 -29 41 0 3 39 46 88 95 110 112 144 172 150 270 4
62 1 80 -21 128 -25 55 -115 154 -186 207 l-34 25 28 42 c15 23 30 42 32 42 3
0 27 -16 53 -35z"/>
<path d="M2808 3614 c-15 -8 -32 -23 -38 -34 -7 -12 -10 -327 -10 -930 l0
-912 29 -29 c24 -24 38 -29 76 -29 55 0 90 29 100 81 3 19 4 434 3 922 l-3
889 -33 29 c-36 33 -80 37 -124 13z"/>
<path d="M2475 3248 c-131 -90 -321 -163 -494 -189 l-81 -12 0 -394 0 -393 23
-4 c12 -2 56 -10 97 -16 153 -25 329 -96 458 -186 35 -24 65 -44 67 -44 3 0 5
288 5 640 0 352 -3 640 -7 640 -5 0 -35 -19 -68 -42z"/>
<path d="M1107 3029 c-44 -26 -47 -51 -47 -383 l0 -316 29 -32 29 -33 286 -3
286 -3 0 391 0 390 -282 0 c-174 0 -290 -5 -301 -11z"/>
<path d="M776 2835 c-83 -29 -144 -124 -133 -206 11 -82 85 -155 167 -166 l40
-6 0 197 c0 220 4 209 -74 181z"/>
<path d="M1277 2063 c-4 -3 -7 -121 -7 -261 l0 -254 34 -34 c49 -49 114 -45
158 10 16 19 18 50 18 284 l0 262 -98 0 c-54 0 -102 -3 -105 -7z"/>
</g>
</svg>
